# xmcd
#
# Track frame offsets:
# 150
# 14038
# 23790
# 46899
# 61287
# 80388
# 99891
# 115776
# 128902
# 142042
# 154592
# 169368
# 182852
# 200253
# 213313
# 228220
# 243192
# 263815
# 279096
# 293921
#
# Disc length: 4141 seconds
#
#
# Revision: 3
# Processed by: cddbd v1.5.2PL0 Copyright (c) Steve Scherf et al.
# Submitted via: FreeRIP 2.96 
#
DISCID=11102b14
DTITLE=Various Artist - Weltberühmt in Österreich 2
DYEAR=2006
DGENRE=Austropop
TTITLE0=Wolfgang Ambros - Da Hofa
TTITLE1=Ostbahn Kurti and die Chefpartie - I hea di klopfn
TTITLE2=Falco and Drahdiwaberl - Ganz Wien
TTITLE3=DÖF - Taxi
TTITLE4=Opus - Live Is Life (Live)
TTITLE5=Peter Cornelius - Du entschuldige - i kenn' di
TTITLE6=Reinhard Fendrich - Weus'd a Herz hast wia a Bergwerk
TTITLE7=Georg Danzer, Ulli Bäer and Andy Baum - Ruaf mi ned an (Live)
TTITLE8=Milestones - Falter im Wind
TTITLE9=Waterloo and Robinson - My Little World
TTITLE10=Springtime - Mr. Captain
TTITLE11=Arik Brauer - Sein Köpferl im Sand
TTITLE12=Bluatschink - Funka fliaga
TTITLE13=Johann K. - Aspirin
TTITLE14=Helmut Qualtinger - Der Bundesbahnblues
TTITLE15=Musyl and Joseppa - Ein Freund ging nach Amerika
TTITLE16=Ludwig Hirsch - Die Omama
TTITLE17=Andre Heller - Wie mei Herzschlag
TTITLE18=Stefanie Werger - I wü di g'spürn
TTITLE19=Georg Danzer - Tschik
EXTD=
EXTT0=
EXTT1=
EXTT2=
EXTT3=
EXTT4=
EXTT5=
EXTT6=
EXTT7=
EXTT8=
EXTT9=
EXTT10=
EXTT11=
EXTT12=
EXTT13=
EXTT14=
EXTT15=
EXTT16=
EXTT17=
EXTT18=
EXTT19=
PLAYORDER=
